<mxfile host="app.diagrams.net" modified="2024-05-16T15:28:33.551Z" agent="Mozilla/5.0 (Windows NT 10.0; Win64; x64) AppleWebKit/537.36 (KHTML, like Gecko) Chrome/124.0.0.0 Safari/537.36" etag="DmBOr8SUrhb98TSJkgkI" version="24.4.0" type="device">
  <diagram name="Page-1" id="UylW8gEkrdN3HJCuNKkL">
    <mxGraphModel dx="3500" dy="1767" grid="1" gridSize="10" guides="1" tooltips="1" connect="1" arrows="1" fold="1" page="1" pageScale="1" pageWidth="850" pageHeight="1100" background="none" math="0" shadow="0">
      <root>
        <mxCell id="0" />
        <mxCell id="1" parent="0" />
        <mxCell id="VL-OSiI_pRh6GWaV0rEh-78" value="&lt;font style=&quot;font-size: 34px;&quot;&gt;High Level Diagram -&amp;nbsp;&lt;span style=&quot;color: rgb(31, 35, 40); font-family: -apple-system, BlinkMacSystemFont, &amp;quot;Segoe UI&amp;quot;, &amp;quot;Noto Sans&amp;quot;, Helvetica, Arial, sans-serif, &amp;quot;Apple Color Emoji&amp;quot;, &amp;quot;Segoe UI Emoji&amp;quot;; text-align: start; background-color: rgb(255, 255, 255);&quot;&gt;YAOSEA&lt;/span&gt;&lt;/font&gt;" style="rounded=0;whiteSpace=wrap;html=1;glass=0;verticalAlign=bottom;fontSize=39;fontStyle=1" vertex="1" parent="1">
          <mxGeometry x="80" y="160" width="1560" height="1760" as="geometry" />
        </mxCell>
        <mxCell id="VL-OSiI_pRh6GWaV0rEh-91" value="&lt;span style=&quot;font-size: 16px;&quot;&gt;&lt;font style=&quot;font-size: 16px;&quot;&gt;Apache AirFlow&lt;/font&gt;&lt;/span&gt;" style="rounded=1;whiteSpace=wrap;html=1;shadow=1;strokeWidth=2;verticalAlign=bottom;fontSize=16;fontStyle=1;fillColor=#f5f5f5;strokeColor=#666666;fontColor=#333333;" vertex="1" parent="1">
          <mxGeometry x="1370" y="470" width="250" height="490" as="geometry" />
        </mxCell>
        <mxCell id="VL-OSiI_pRh6GWaV0rEh-35" value="&lt;b style=&quot;font-size: 18px;&quot;&gt;Admin&lt;/b&gt;" style="rounded=1;whiteSpace=wrap;html=1;verticalAlign=bottom;fontSize=18;shadow=1;fillColor=#dae8fc;strokeColor=#6c8ebf;" vertex="1" parent="1">
          <mxGeometry x="650" y="950" width="230" height="250" as="geometry" />
        </mxCell>
        <mxCell id="VL-OSiI_pRh6GWaV0rEh-34" value="&lt;span style=&quot;font-size: 18px;&quot;&gt;Monitoring&lt;/span&gt;" style="rounded=1;whiteSpace=wrap;html=1;verticalAlign=bottom;fontStyle=1;fontSize=18;glass=0;shadow=1;fillColor=#d5e8d4;strokeColor=#82b366;" vertex="1" parent="1">
          <mxGeometry x="650" y="1230" width="230" height="210" as="geometry" />
        </mxCell>
        <mxCell id="VL-OSiI_pRh6GWaV0rEh-33" value="ELK" style="rounded=1;whiteSpace=wrap;html=1;verticalAlign=bottom;fontStyle=1;fontSize=18;shadow=1;fillColor=#fff2cc;strokeColor=#d6b656;" vertex="1" parent="1">
          <mxGeometry x="650" y="1470" width="240" height="300" as="geometry" />
        </mxCell>
        <mxCell id="VL-OSiI_pRh6GWaV0rEh-2" value="&lt;b&gt;&lt;font style=&quot;font-size: 19px;&quot;&gt;nginx&lt;/font&gt;&lt;/b&gt;" style="rounded=0;whiteSpace=wrap;html=1;textShadow=1;textDirection=vertical-rl;fillColor=#f5f5f5;fontColor=#333333;strokeColor=#666666;shadow=1;strokeWidth=2;" vertex="1" parent="1">
          <mxGeometry x="470" y="250" width="60" height="640" as="geometry" />
        </mxCell>
        <mxCell id="VL-OSiI_pRh6GWaV0rEh-62" style="edgeStyle=orthogonalEdgeStyle;rounded=0;orthogonalLoop=1;jettySize=auto;html=1;entryX=0;entryY=0.5;entryDx=0;entryDy=0;" edge="1" parent="1" source="VL-OSiI_pRh6GWaV0rEh-3" target="VL-OSiI_pRh6GWaV0rEh-5">
          <mxGeometry relative="1" as="geometry">
            <Array as="points">
              <mxPoint x="610" y="480" />
              <mxPoint x="610" y="280" />
            </Array>
          </mxGeometry>
        </mxCell>
        <mxCell id="VL-OSiI_pRh6GWaV0rEh-63" style="edgeStyle=orthogonalEdgeStyle;rounded=0;orthogonalLoop=1;jettySize=auto;html=1;entryX=0;entryY=0.5;entryDx=0;entryDy=0;" edge="1" parent="1" source="VL-OSiI_pRh6GWaV0rEh-3" target="VL-OSiI_pRh6GWaV0rEh-6">
          <mxGeometry relative="1" as="geometry">
            <Array as="points">
              <mxPoint x="610" y="480" />
              <mxPoint x="610" y="380" />
            </Array>
          </mxGeometry>
        </mxCell>
        <mxCell id="VL-OSiI_pRh6GWaV0rEh-64" style="edgeStyle=orthogonalEdgeStyle;rounded=0;orthogonalLoop=1;jettySize=auto;html=1;entryX=0;entryY=0.5;entryDx=0;entryDy=0;" edge="1" parent="1" source="VL-OSiI_pRh6GWaV0rEh-3" target="VL-OSiI_pRh6GWaV0rEh-7">
          <mxGeometry relative="1" as="geometry" />
        </mxCell>
        <mxCell id="VL-OSiI_pRh6GWaV0rEh-65" style="edgeStyle=orthogonalEdgeStyle;rounded=0;orthogonalLoop=1;jettySize=auto;html=1;entryX=0;entryY=0.5;entryDx=0;entryDy=0;" edge="1" parent="1" source="VL-OSiI_pRh6GWaV0rEh-3" target="VL-OSiI_pRh6GWaV0rEh-8">
          <mxGeometry relative="1" as="geometry">
            <Array as="points">
              <mxPoint x="610" y="480" />
              <mxPoint x="610" y="580" />
            </Array>
          </mxGeometry>
        </mxCell>
        <mxCell id="VL-OSiI_pRh6GWaV0rEh-69" style="edgeStyle=orthogonalEdgeStyle;rounded=0;orthogonalLoop=1;jettySize=auto;html=1;entryX=0;entryY=0.5;entryDx=0;entryDy=0;" edge="1" parent="1" source="VL-OSiI_pRh6GWaV0rEh-3" target="VL-OSiI_pRh6GWaV0rEh-10">
          <mxGeometry relative="1" as="geometry">
            <Array as="points">
              <mxPoint x="610" y="480" />
              <mxPoint x="610" y="670" />
            </Array>
          </mxGeometry>
        </mxCell>
        <mxCell id="VL-OSiI_pRh6GWaV0rEh-70" style="edgeStyle=orthogonalEdgeStyle;rounded=0;orthogonalLoop=1;jettySize=auto;html=1;startArrow=classic;startFill=1;entryX=0.017;entryY=0.65;entryDx=0;entryDy=0;entryPerimeter=0;" edge="1" parent="1" source="VL-OSiI_pRh6GWaV0rEh-3" target="VL-OSiI_pRh6GWaV0rEh-9">
          <mxGeometry relative="1" as="geometry">
            <mxPoint x="690" y="760" as="targetPoint" />
            <Array as="points">
              <mxPoint x="610" y="480" />
              <mxPoint x="610" y="760" />
              <mxPoint x="690" y="760" />
              <mxPoint x="690" y="758" />
            </Array>
          </mxGeometry>
        </mxCell>
        <mxCell id="VL-OSiI_pRh6GWaV0rEh-3" value="Customer" style="shape=umlActor;verticalLabelPosition=bottom;verticalAlign=top;html=1;outlineConnect=0;gradientColor=default;" vertex="1" parent="1">
          <mxGeometry x="140" y="450" width="30" height="60" as="geometry" />
        </mxCell>
        <mxCell id="VL-OSiI_pRh6GWaV0rEh-46" style="edgeStyle=orthogonalEdgeStyle;rounded=0;orthogonalLoop=1;jettySize=auto;html=1;startArrow=classic;startFill=1;strokeWidth=2;" edge="1" parent="1" source="VL-OSiI_pRh6GWaV0rEh-5" target="VL-OSiI_pRh6GWaV0rEh-14">
          <mxGeometry relative="1" as="geometry">
            <Array as="points">
              <mxPoint x="900" y="300" />
              <mxPoint x="900" y="630" />
            </Array>
          </mxGeometry>
        </mxCell>
        <mxCell id="VL-OSiI_pRh6GWaV0rEh-5" value="Account Server" style="rounded=0;whiteSpace=wrap;html=1;textShadow=1;fontSize=15;shadow=1;fillColor=#e1d5e7;strokeColor=#9673a6;gradientColor=none;" vertex="1" parent="1">
          <mxGeometry x="700" y="250" width="120" height="60" as="geometry" />
        </mxCell>
        <mxCell id="VL-OSiI_pRh6GWaV0rEh-6" value="Auth Server" style="rounded=0;whiteSpace=wrap;html=1;textShadow=1;fontSize=15;shadow=1;fillColor=#e1d5e7;strokeColor=#9673a6;" vertex="1" parent="1">
          <mxGeometry x="700" y="350" width="120" height="60" as="geometry" />
        </mxCell>
        <mxCell id="VL-OSiI_pRh6GWaV0rEh-50" style="edgeStyle=orthogonalEdgeStyle;rounded=0;orthogonalLoop=1;jettySize=auto;html=1;startArrow=classic;startFill=1;strokeWidth=2;" edge="1" parent="1" source="VL-OSiI_pRh6GWaV0rEh-7" target="VL-OSiI_pRh6GWaV0rEh-14">
          <mxGeometry relative="1" as="geometry">
            <Array as="points">
              <mxPoint x="900" y="500" />
              <mxPoint x="900" y="630" />
            </Array>
          </mxGeometry>
        </mxCell>
        <mxCell id="VL-OSiI_pRh6GWaV0rEh-7" value="Catalog Server" style="rounded=0;whiteSpace=wrap;html=1;textShadow=1;fontSize=15;shadow=1;fillColor=#e1d5e7;strokeColor=#9673a6;" vertex="1" parent="1">
          <mxGeometry x="700" y="450" width="120" height="60" as="geometry" />
        </mxCell>
        <mxCell id="VL-OSiI_pRh6GWaV0rEh-8" value="Checkout Server" style="rounded=0;whiteSpace=wrap;html=1;textShadow=1;fontSize=15;shadow=1;fillColor=#e1d5e7;strokeColor=#9673a6;" vertex="1" parent="1">
          <mxGeometry x="700" y="550" width="120" height="60" as="geometry" />
        </mxCell>
        <mxCell id="VL-OSiI_pRh6GWaV0rEh-9" value="Solr Server" style="rounded=0;whiteSpace=wrap;html=1;textShadow=1;fontSize=15;shadow=1;fillColor=#e1d5e7;strokeColor=#9673a6;" vertex="1" parent="1">
          <mxGeometry x="698" y="719" width="120" height="60" as="geometry" />
        </mxCell>
        <mxCell id="VL-OSiI_pRh6GWaV0rEh-10" value="Nginx/&lt;div&gt;Web React Server&lt;/div&gt;" style="rounded=0;whiteSpace=wrap;html=1;textShadow=1;fontSize=15;shadow=1;fillColor=#ffe6cc;strokeColor=#d79b00;" vertex="1" parent="1">
          <mxGeometry x="700" y="640" width="120" height="60" as="geometry" />
        </mxCell>
        <mxCell id="VL-OSiI_pRh6GWaV0rEh-68" style="edgeStyle=orthogonalEdgeStyle;rounded=0;orthogonalLoop=1;jettySize=auto;html=1;entryX=0;entryY=0.75;entryDx=0;entryDy=0;strokeWidth=2;" edge="1" parent="1" source="VL-OSiI_pRh6GWaV0rEh-11" target="VL-OSiI_pRh6GWaV0rEh-7">
          <mxGeometry relative="1" as="geometry">
            <Array as="points">
              <mxPoint x="630" y="1130" />
              <mxPoint x="630" y="496" />
              <mxPoint x="700" y="496" />
            </Array>
          </mxGeometry>
        </mxCell>
        <mxCell id="VL-OSiI_pRh6GWaV0rEh-79" style="edgeStyle=orthogonalEdgeStyle;rounded=0;orthogonalLoop=1;jettySize=auto;html=1;" edge="1" parent="1" source="VL-OSiI_pRh6GWaV0rEh-11" target="VL-OSiI_pRh6GWaV0rEh-15">
          <mxGeometry relative="1" as="geometry" />
        </mxCell>
        <mxCell id="VL-OSiI_pRh6GWaV0rEh-11" value="Admin Server" style="rounded=0;whiteSpace=wrap;html=1;textShadow=1;fontSize=15;strokeWidth=1;fillColor=#e1d5e7;strokeColor=#9673a6;" vertex="1" parent="1">
          <mxGeometry x="700" y="1075" width="120" height="75" as="geometry" />
        </mxCell>
        <mxCell id="VL-OSiI_pRh6GWaV0rEh-12" value="Nginx/&lt;div&gt;Admin React Server&lt;/div&gt;" style="rounded=0;whiteSpace=wrap;html=1;textShadow=1;fontSize=15;fillColor=#ffe6cc;strokeColor=#d79b00;" vertex="1" parent="1">
          <mxGeometry x="698" y="980" width="120" height="60" as="geometry" />
        </mxCell>
        <mxCell id="VL-OSiI_pRh6GWaV0rEh-52" style="edgeStyle=orthogonalEdgeStyle;rounded=0;orthogonalLoop=1;jettySize=auto;html=1;entryX=0;entryY=0.5;entryDx=0;entryDy=0;startArrow=classic;startFill=1;strokeWidth=2;" edge="1" parent="1" source="VL-OSiI_pRh6GWaV0rEh-13" target="VL-OSiI_pRh6GWaV0rEh-17">
          <mxGeometry relative="1" as="geometry">
            <Array as="points">
              <mxPoint x="1390" y="330" />
              <mxPoint x="1390" y="280" />
            </Array>
          </mxGeometry>
        </mxCell>
        <mxCell id="VL-OSiI_pRh6GWaV0rEh-56" style="edgeStyle=orthogonalEdgeStyle;rounded=0;orthogonalLoop=1;jettySize=auto;html=1;entryX=1;entryY=0.5;entryDx=0;entryDy=0;strokeWidth=2;" edge="1" parent="1" source="VL-OSiI_pRh6GWaV0rEh-13" target="VL-OSiI_pRh6GWaV0rEh-32">
          <mxGeometry relative="1" as="geometry">
            <Array as="points">
              <mxPoint x="1330" y="390" />
              <mxPoint x="1330" y="1600" />
            </Array>
          </mxGeometry>
        </mxCell>
        <mxCell id="VL-OSiI_pRh6GWaV0rEh-73" style="edgeStyle=orthogonalEdgeStyle;rounded=0;orthogonalLoop=1;jettySize=auto;html=1;entryX=0;entryY=0.5;entryDx=0;entryDy=0;startArrow=classic;startFill=1;strokeWidth=2;" edge="1" parent="1" source="VL-OSiI_pRh6GWaV0rEh-13" target="VL-OSiI_pRh6GWaV0rEh-72">
          <mxGeometry relative="1" as="geometry">
            <Array as="points">
              <mxPoint x="1390" y="355" />
              <mxPoint x="1390" y="380" />
            </Array>
          </mxGeometry>
        </mxCell>
        <mxCell id="VL-OSiI_pRh6GWaV0rEh-13" value="Kafka" style="shape=cylinder3;whiteSpace=wrap;html=1;boundedLbl=1;backgroundOutline=1;size=15;direction=south;shadow=1;strokeWidth=2;fontSize=16;fillColor=#f5f5f5;gradientColor=#b3b3b3;strokeColor=#666666;" vertex="1" parent="1">
          <mxGeometry x="1000" y="300" width="210" height="110" as="geometry" />
        </mxCell>
        <mxCell id="VL-OSiI_pRh6GWaV0rEh-76" style="edgeStyle=orthogonalEdgeStyle;rounded=0;orthogonalLoop=1;jettySize=auto;html=1;entryX=0;entryY=0.5;entryDx=0;entryDy=0;" edge="1" parent="1" source="VL-OSiI_pRh6GWaV0rEh-14" target="VL-OSiI_pRh6GWaV0rEh-75">
          <mxGeometry relative="1" as="geometry">
            <Array as="points">
              <mxPoint x="1400" y="615" />
              <mxPoint x="1400" y="550" />
            </Array>
          </mxGeometry>
        </mxCell>
        <mxCell id="VL-OSiI_pRh6GWaV0rEh-90" style="edgeStyle=orthogonalEdgeStyle;rounded=0;orthogonalLoop=1;jettySize=auto;html=1;entryX=0;entryY=0.5;entryDx=0;entryDy=0;" edge="1" parent="1" source="VL-OSiI_pRh6GWaV0rEh-14" target="VL-OSiI_pRh6GWaV0rEh-85">
          <mxGeometry relative="1" as="geometry">
            <Array as="points">
              <mxPoint x="1390" y="670" />
              <mxPoint x="1390" y="847" />
            </Array>
          </mxGeometry>
        </mxCell>
        <mxCell id="VL-OSiI_pRh6GWaV0rEh-14" value="Mongo DB" style="shape=cylinder3;whiteSpace=wrap;html=1;boundedLbl=1;backgroundOutline=1;size=15;shadow=1;strokeWidth=2;fontSize=16;fillColor=#fff2cc;gradientColor=#ffd966;strokeColor=#d6b656;" vertex="1" parent="1">
          <mxGeometry x="1020" y="530" width="190" height="170" as="geometry" />
        </mxCell>
        <mxCell id="VL-OSiI_pRh6GWaV0rEh-15" value="Mongo DB" style="shape=cylinder3;whiteSpace=wrap;html=1;boundedLbl=1;backgroundOutline=1;size=15;shadow=1;strokeWidth=2;fontSize=16;fillColor=#fff2cc;gradientColor=#ffd966;strokeColor=#d6b656;" vertex="1" parent="1">
          <mxGeometry x="1040" y="1017" width="190" height="190" as="geometry" />
        </mxCell>
        <mxCell id="VL-OSiI_pRh6GWaV0rEh-17" value="Notification Server" style="rounded=0;whiteSpace=wrap;html=1;textShadow=1;fontSize=15;shadow=1;fillColor=#e1d5e7;strokeColor=#9673a6;" vertex="1" parent="1">
          <mxGeometry x="1460" y="250" width="120" height="60" as="geometry" />
        </mxCell>
        <mxCell id="VL-OSiI_pRh6GWaV0rEh-66" style="edgeStyle=orthogonalEdgeStyle;rounded=0;orthogonalLoop=1;jettySize=auto;html=1;entryX=1;entryY=0.683;entryDx=0;entryDy=0;entryPerimeter=0;" edge="1" parent="1" source="VL-OSiI_pRh6GWaV0rEh-18" target="VL-OSiI_pRh6GWaV0rEh-9">
          <mxGeometry relative="1" as="geometry">
            <mxPoint x="830" y="760" as="targetPoint" />
            <Array as="points">
              <mxPoint x="1510" y="760" />
            </Array>
          </mxGeometry>
        </mxCell>
        <mxCell id="VL-OSiI_pRh6GWaV0rEh-18" value="Search Data Processor" style="rounded=0;whiteSpace=wrap;html=1;textShadow=1;fontSize=15;shadow=1;fillColor=#dae8fc;strokeColor=#6c8ebf;" vertex="1" parent="1">
          <mxGeometry x="1450" y="620" width="120" height="60" as="geometry" />
        </mxCell>
        <mxCell id="VL-OSiI_pRh6GWaV0rEh-20" value="&lt;b&gt;&lt;font style=&quot;font-size: 19px;&quot;&gt;nginx&lt;/font&gt;&lt;/b&gt;" style="rounded=0;whiteSpace=wrap;html=1;textShadow=1;textDirection=vertical-rl;fillColor=#f5f5f5;fontColor=#333333;strokeColor=#666666;shadow=1;strokeWidth=2;" vertex="1" parent="1">
          <mxGeometry x="460" y="970" width="60" height="640" as="geometry" />
        </mxCell>
        <mxCell id="VL-OSiI_pRh6GWaV0rEh-23" value="Graphana" style="rounded=0;whiteSpace=wrap;html=1;textShadow=1;fontSize=15;" vertex="1" parent="1">
          <mxGeometry x="700" y="1260" width="120" height="60" as="geometry" />
        </mxCell>
        <mxCell id="VL-OSiI_pRh6GWaV0rEh-24" value="Elastic Search" style="rounded=0;whiteSpace=wrap;html=1;textShadow=1;fontSize=15;" vertex="1" parent="1">
          <mxGeometry x="698" y="1482" width="120" height="60" as="geometry" />
        </mxCell>
        <mxCell id="VL-OSiI_pRh6GWaV0rEh-26" value="Kibana" style="rounded=0;whiteSpace=wrap;html=1;textShadow=1;fontSize=15;" vertex="1" parent="1">
          <mxGeometry x="698" y="1650" width="120" height="60" as="geometry" />
        </mxCell>
        <mxCell id="VL-OSiI_pRh6GWaV0rEh-30" value="Prometheus" style="rounded=0;whiteSpace=wrap;html=1;textShadow=1;fontSize=15;" vertex="1" parent="1">
          <mxGeometry x="700" y="1349" width="120" height="60" as="geometry" />
        </mxCell>
        <mxCell id="VL-OSiI_pRh6GWaV0rEh-32" value="Logtash" style="rounded=0;whiteSpace=wrap;html=1;textShadow=1;fontSize=15;" vertex="1" parent="1">
          <mxGeometry x="698" y="1570" width="120" height="60" as="geometry" />
        </mxCell>
        <mxCell id="VL-OSiI_pRh6GWaV0rEh-39" style="edgeStyle=orthogonalEdgeStyle;rounded=0;orthogonalLoop=1;jettySize=auto;html=1;entryX=0;entryY=0.5;entryDx=0;entryDy=0;strokeWidth=2;startArrow=classic;startFill=1;" edge="1" parent="1" source="VL-OSiI_pRh6GWaV0rEh-38" target="VL-OSiI_pRh6GWaV0rEh-12">
          <mxGeometry relative="1" as="geometry">
            <Array as="points">
              <mxPoint x="570" y="1260" />
              <mxPoint x="570" y="1010" />
            </Array>
          </mxGeometry>
        </mxCell>
        <mxCell id="VL-OSiI_pRh6GWaV0rEh-40" style="edgeStyle=orthogonalEdgeStyle;rounded=0;orthogonalLoop=1;jettySize=auto;html=1;strokeWidth=2;startArrow=classic;startFill=1;entryX=0;entryY=0.5;entryDx=0;entryDy=0;" edge="1" parent="1" source="VL-OSiI_pRh6GWaV0rEh-38" target="VL-OSiI_pRh6GWaV0rEh-11">
          <mxGeometry relative="1" as="geometry">
            <mxPoint x="680" y="1105" as="targetPoint" />
            <Array as="points">
              <mxPoint x="570" y="1260" />
              <mxPoint x="570" y="1105" />
              <mxPoint x="700" y="1105" />
            </Array>
          </mxGeometry>
        </mxCell>
        <mxCell id="VL-OSiI_pRh6GWaV0rEh-41" style="edgeStyle=orthogonalEdgeStyle;rounded=0;orthogonalLoop=1;jettySize=auto;html=1;entryX=0;entryY=0.75;entryDx=0;entryDy=0;strokeWidth=2;startArrow=classic;startFill=1;" edge="1" parent="1" source="VL-OSiI_pRh6GWaV0rEh-38" target="VL-OSiI_pRh6GWaV0rEh-23">
          <mxGeometry relative="1" as="geometry">
            <Array as="points">
              <mxPoint x="570" y="1260" />
              <mxPoint x="570" y="1305" />
            </Array>
          </mxGeometry>
        </mxCell>
        <mxCell id="VL-OSiI_pRh6GWaV0rEh-42" style="edgeStyle=orthogonalEdgeStyle;rounded=0;orthogonalLoop=1;jettySize=auto;html=1;entryX=0;entryY=0.5;entryDx=0;entryDy=0;strokeWidth=2;startArrow=classic;startFill=1;" edge="1" parent="1" source="VL-OSiI_pRh6GWaV0rEh-38" target="VL-OSiI_pRh6GWaV0rEh-24">
          <mxGeometry relative="1" as="geometry">
            <Array as="points">
              <mxPoint x="570" y="1260" />
              <mxPoint x="570" y="1512" />
            </Array>
          </mxGeometry>
        </mxCell>
        <mxCell id="VL-OSiI_pRh6GWaV0rEh-43" style="edgeStyle=orthogonalEdgeStyle;rounded=0;orthogonalLoop=1;jettySize=auto;html=1;entryX=0;entryY=0.5;entryDx=0;entryDy=0;strokeWidth=2;startArrow=classic;startFill=1;" edge="1" parent="1" source="VL-OSiI_pRh6GWaV0rEh-38" target="VL-OSiI_pRh6GWaV0rEh-26">
          <mxGeometry relative="1" as="geometry">
            <Array as="points">
              <mxPoint x="570" y="1260" />
              <mxPoint x="570" y="1680" />
            </Array>
          </mxGeometry>
        </mxCell>
        <mxCell id="VL-OSiI_pRh6GWaV0rEh-38" value="Biz User" style="shape=umlActor;verticalLabelPosition=bottom;verticalAlign=top;html=1;outlineConnect=0;gradientColor=default;" vertex="1" parent="1">
          <mxGeometry x="120" y="1230" width="30" height="60" as="geometry" />
        </mxCell>
        <mxCell id="VL-OSiI_pRh6GWaV0rEh-45" style="edgeStyle=orthogonalEdgeStyle;rounded=0;orthogonalLoop=1;jettySize=auto;html=1;entryX=0.5;entryY=1;entryDx=0;entryDy=0;entryPerimeter=0;strokeWidth=2;startArrow=classic;startFill=1;" edge="1" parent="1" source="VL-OSiI_pRh6GWaV0rEh-8" target="VL-OSiI_pRh6GWaV0rEh-13">
          <mxGeometry relative="1" as="geometry">
            <Array as="points">
              <mxPoint x="970" y="570" />
              <mxPoint x="970" y="355" />
            </Array>
          </mxGeometry>
        </mxCell>
        <mxCell id="VL-OSiI_pRh6GWaV0rEh-49" style="edgeStyle=orthogonalEdgeStyle;rounded=0;orthogonalLoop=1;jettySize=auto;html=1;entryX=0;entryY=0.576;entryDx=0;entryDy=0;entryPerimeter=0;startArrow=classic;startFill=1;strokeWidth=2;" edge="1" parent="1" source="VL-OSiI_pRh6GWaV0rEh-6" target="VL-OSiI_pRh6GWaV0rEh-14">
          <mxGeometry relative="1" as="geometry">
            <Array as="points">
              <mxPoint x="900" y="400" />
              <mxPoint x="900" y="628" />
            </Array>
          </mxGeometry>
        </mxCell>
        <mxCell id="VL-OSiI_pRh6GWaV0rEh-51" style="edgeStyle=orthogonalEdgeStyle;rounded=0;orthogonalLoop=1;jettySize=auto;html=1;entryX=-0.013;entryY=0.586;entryDx=0;entryDy=0;entryPerimeter=0;startArrow=classic;startFill=1;strokeWidth=2;" edge="1" parent="1" source="VL-OSiI_pRh6GWaV0rEh-8" target="VL-OSiI_pRh6GWaV0rEh-14">
          <mxGeometry relative="1" as="geometry">
            <Array as="points">
              <mxPoint x="900" y="590" />
              <mxPoint x="900" y="630" />
            </Array>
          </mxGeometry>
        </mxCell>
        <mxCell id="VL-OSiI_pRh6GWaV0rEh-57" style="edgeStyle=orthogonalEdgeStyle;rounded=0;orthogonalLoop=1;jettySize=auto;html=1;entryX=0.5;entryY=1;entryDx=0;entryDy=0;entryPerimeter=0;" edge="1" parent="1" source="VL-OSiI_pRh6GWaV0rEh-5" target="VL-OSiI_pRh6GWaV0rEh-13">
          <mxGeometry relative="1" as="geometry">
            <Array as="points">
              <mxPoint x="940" y="270" />
              <mxPoint x="940" y="355" />
            </Array>
          </mxGeometry>
        </mxCell>
        <mxCell id="VL-OSiI_pRh6GWaV0rEh-59" style="edgeStyle=orthogonalEdgeStyle;rounded=0;orthogonalLoop=1;jettySize=auto;html=1;entryX=0.5;entryY=1;entryDx=0;entryDy=0;entryPerimeter=0;" edge="1" parent="1" source="VL-OSiI_pRh6GWaV0rEh-6" target="VL-OSiI_pRh6GWaV0rEh-13">
          <mxGeometry relative="1" as="geometry">
            <Array as="points">
              <mxPoint x="940" y="360" />
              <mxPoint x="940" y="355" />
            </Array>
          </mxGeometry>
        </mxCell>
        <mxCell id="VL-OSiI_pRh6GWaV0rEh-60" style="edgeStyle=orthogonalEdgeStyle;rounded=0;orthogonalLoop=1;jettySize=auto;html=1;entryX=0.5;entryY=1;entryDx=0;entryDy=0;entryPerimeter=0;" edge="1" parent="1" source="VL-OSiI_pRh6GWaV0rEh-7" target="VL-OSiI_pRh6GWaV0rEh-13">
          <mxGeometry relative="1" as="geometry">
            <Array as="points">
              <mxPoint x="940" y="460" />
              <mxPoint x="940" y="355" />
            </Array>
          </mxGeometry>
        </mxCell>
        <mxCell id="VL-OSiI_pRh6GWaV0rEh-61" style="edgeStyle=orthogonalEdgeStyle;rounded=0;orthogonalLoop=1;jettySize=auto;html=1;entryX=0.5;entryY=1;entryDx=0;entryDy=0;entryPerimeter=0;" edge="1" parent="1" source="VL-OSiI_pRh6GWaV0rEh-8" target="VL-OSiI_pRh6GWaV0rEh-13">
          <mxGeometry relative="1" as="geometry">
            <Array as="points">
              <mxPoint x="940" y="560" />
              <mxPoint x="940" y="355" />
            </Array>
          </mxGeometry>
        </mxCell>
        <mxCell id="VL-OSiI_pRh6GWaV0rEh-72" value="3rd Party Integration" style="rounded=0;whiteSpace=wrap;html=1;textShadow=1;fontSize=15;shadow=1;fillColor=#e1d5e7;strokeColor=#9673a6;" vertex="1" parent="1">
          <mxGeometry x="1460" y="350" width="120" height="60" as="geometry" />
        </mxCell>
        <mxCell id="VL-OSiI_pRh6GWaV0rEh-74" style="edgeStyle=orthogonalEdgeStyle;rounded=0;orthogonalLoop=1;jettySize=auto;html=1;entryX=1;entryY=0;entryDx=0;entryDy=120;entryPerimeter=0;startArrow=classic;startFill=1;endArrow=none;endFill=0;" edge="1" parent="1" source="VL-OSiI_pRh6GWaV0rEh-18" target="VL-OSiI_pRh6GWaV0rEh-14">
          <mxGeometry relative="1" as="geometry" />
        </mxCell>
        <mxCell id="VL-OSiI_pRh6GWaV0rEh-75" value="Reporting Jobs" style="rounded=0;whiteSpace=wrap;html=1;textShadow=1;fontSize=15;shadow=1;fillColor=#dae8fc;strokeColor=#6c8ebf;" vertex="1" parent="1">
          <mxGeometry x="1450" y="520" width="120" height="60" as="geometry" />
        </mxCell>
        <mxCell id="VL-OSiI_pRh6GWaV0rEh-80" value="Product Recommendation" style="rounded=0;whiteSpace=wrap;html=1;textShadow=1;fontSize=15;shadow=1;fillColor=#dae8fc;strokeColor=#6c8ebf;" vertex="1" parent="1">
          <mxGeometry x="702" y="870" width="120" height="60" as="geometry" />
        </mxCell>
        <mxCell id="VL-OSiI_pRh6GWaV0rEh-94" style="edgeStyle=orthogonalEdgeStyle;rounded=0;orthogonalLoop=1;jettySize=auto;html=1;endArrow=none;endFill=0;startArrow=classic;startFill=1;" edge="1" parent="1" source="VL-OSiI_pRh6GWaV0rEh-81" target="VL-OSiI_pRh6GWaV0rEh-85">
          <mxGeometry relative="1" as="geometry">
            <Array as="points">
              <mxPoint x="1508" y="892" />
            </Array>
          </mxGeometry>
        </mxCell>
        <mxCell id="VL-OSiI_pRh6GWaV0rEh-81" value="Postgres&lt;div&gt;Vector DB&lt;/div&gt;" style="shape=cylinder3;whiteSpace=wrap;html=1;boundedLbl=1;backgroundOutline=1;size=15;shadow=1;strokeWidth=2;fontSize=16;fillColor=#fff2cc;gradientColor=#ffd966;strokeColor=#d6b656;" vertex="1" parent="1">
          <mxGeometry x="1040" y="842" width="160" height="100" as="geometry" />
        </mxCell>
        <mxCell id="VL-OSiI_pRh6GWaV0rEh-85" value="AL Processor" style="rounded=0;whiteSpace=wrap;html=1;textShadow=1;fontSize=15;shadow=1;fillColor=#dae8fc;strokeColor=#6c8ebf;" vertex="1" parent="1">
          <mxGeometry x="1448" y="817" width="120" height="60" as="geometry" />
        </mxCell>
        <mxCell id="VL-OSiI_pRh6GWaV0rEh-96" style="edgeStyle=orthogonalEdgeStyle;rounded=0;orthogonalLoop=1;jettySize=auto;html=1;startArrow=classic;startFill=1;" edge="1" parent="1" source="VL-OSiI_pRh6GWaV0rEh-92" target="VL-OSiI_pRh6GWaV0rEh-3">
          <mxGeometry relative="1" as="geometry">
            <Array as="points">
              <mxPoint x="610" y="825" />
              <mxPoint x="610" y="480" />
            </Array>
          </mxGeometry>
        </mxCell>
        <mxCell id="VL-OSiI_pRh6GWaV0rEh-98" style="edgeStyle=orthogonalEdgeStyle;rounded=0;orthogonalLoop=1;jettySize=auto;html=1;startArrow=classic;startFill=1;" edge="1" parent="1" source="VL-OSiI_pRh6GWaV0rEh-92" target="VL-OSiI_pRh6GWaV0rEh-14">
          <mxGeometry relative="1" as="geometry">
            <Array as="points">
              <mxPoint x="900" y="825" />
              <mxPoint x="900" y="630" />
            </Array>
          </mxGeometry>
        </mxCell>
        <mxCell id="VL-OSiI_pRh6GWaV0rEh-92" value="Review N Rating" style="rounded=0;whiteSpace=wrap;html=1;textShadow=1;fontSize=15;shadow=1;fillColor=#dae8fc;strokeColor=#6c8ebf;" vertex="1" parent="1">
          <mxGeometry x="701" y="795" width="120" height="60" as="geometry" />
        </mxCell>
        <mxCell id="VL-OSiI_pRh6GWaV0rEh-95" style="edgeStyle=orthogonalEdgeStyle;rounded=0;orthogonalLoop=1;jettySize=auto;html=1;endArrow=none;endFill=0;startArrow=classic;startFill=1;" edge="1" parent="1" source="VL-OSiI_pRh6GWaV0rEh-80">
          <mxGeometry relative="1" as="geometry">
            <mxPoint x="1040" y="900" as="targetPoint" />
            <Array as="points">
              <mxPoint x="1040" y="900" />
            </Array>
          </mxGeometry>
        </mxCell>
        <mxCell id="VL-OSiI_pRh6GWaV0rEh-97" style="edgeStyle=orthogonalEdgeStyle;rounded=0;orthogonalLoop=1;jettySize=auto;html=1;entryX=0.5;entryY=0.5;entryDx=0;entryDy=0;entryPerimeter=0;startArrow=classic;startFill=1;" edge="1" parent="1" source="VL-OSiI_pRh6GWaV0rEh-80" target="VL-OSiI_pRh6GWaV0rEh-3">
          <mxGeometry relative="1" as="geometry">
            <Array as="points">
              <mxPoint x="610" y="900" />
              <mxPoint x="610" y="480" />
            </Array>
          </mxGeometry>
        </mxCell>
      </root>
    </mxGraphModel>
  </diagram>
</mxfile>
